# xmcd
#
# Track frame offsets:
#	150
#	18492
#	42914
#	64054
#	83181
#	96312
#	110732
#	135879
#	166069
#	188862
#	204487
#	223273
#	247808
#	269080
#	285468
#	314378
#
# Disc length: 4447
#
# Revision: 1
# Processed by: cddbd v1.5.1PL0 Copyright (c) Steve Scherf et al.
# Submitted via: audiograbber 1.70
# Normalized: r0:DSETVAR1
#
DISCID=e7115d10
DTITLE=Various Artist - BREAKEBEAT HITS
DYEAR=1900
DGENRE=
TTITLE0=The Crystal Method - Busy Child
TTITLE1=The Bloodsuckas - Radio Athletico
TTITLE2=Propellersheads - Spybreak
TTITLE3=Dylan Rhymes - Nacked and Ashamed
TTITLE4=Soul Coughing - Super Bon Bon
TTITLE5=Lunatic Calm - Leave You Behind
TTITLE6=Prodigy - Breathe
TTITLE7=Metro - Hold Your Wig
TTITLE8=Primal Scream - Jail Bird
TTITLE9=The Charlatans - Nine Acre Dust
TTITLE10=Sabres Of Paradise - Tow Truck
TTITLE11=The Chemical Brothers - Dig Your Own Hole
TTITLE12=Shaun Imrei - Two Telephone Calls and an Air Raid
TTITLE13=Fluke - Absurd
TTITLE14=Simon - Two Crates
TTITLE15=Freestylers - Freestyle Noize
EXTD=
EXTT0=
EXTT1=
EXTT2=
EXTT3=
EXTT4=
EXTT5=
EXTT6=
EXTT7=
EXTT8=
EXTT9=
EXTT10=
EXTT11=
EXTT12=
EXTT13=
EXTT14=
EXTT15=
PLAYORDER=
